<svg xmlns="http://www.w3.org/2000/svg" width="199.832" height="45"><defs><style>.a{fill:#fff}</style></defs><path class="a" d="M48.185 10.518h4.64v22.351h-4.64zm7.198 14.673a8.121 8.121 0 118.12 8.121h-.044a8.012 8.012 0 01-8.075-7.949c-.002-.057-.001-.115-.001-.172zm11.632 0a3.527 3.527 0 10-3.527 3.62 3.435 3.435 0 003.5-3.367v-.253z"/><path class="a" d="M89.82 17.467v14.555c0 5.136-4.022 7.317-8.09 7.317a7.735 7.735 0 01-7.255-3.712l3.913-2.258a3.511 3.511 0 003.5 1.933 3.094 3.094 0 003.449-2.692 3.137 3.137 0 00.017-.587v-1.408a5.459 5.459 0 01-4.47 1.979 7.734 7.734 0 110-15.468 5.462 5.462 0 014.47 1.98v-1.547zm-4.47 7.347a3.712 3.712 0 10-3.864 3.554h.151a3.464 3.464 0 003.7-3.207c.014-.113.016-.23.013-.347zm7.008.377a8.12 8.12 0 118.12 8.121h-.015a8.028 8.028 0 01-8.106-7.949l.001-.172zm11.631 0a3.527 3.527 0 10-3.511 3.62 3.434 3.434 0 003.5-3.367v-.253zm6.68-11.735a2.753 2.753 0 112.753 2.754 2.784 2.784 0 01-2.753-2.754zm.448 4.1h4.64v15.312h-4.64zm24.443 7.568a7.734 7.734 0 01-7.329 8.118h-.049a5.753 5.753 0 01-4.64-1.871v7.564h-4.64V17.463h4.64v1.438a5.739 5.739 0 014.64-1.856 7.734 7.734 0 017.378 8.074zm-4.641 0a3.65 3.65 0 10-3.635 3.743 3.5 3.5 0 003.644-3.345 3.323 3.323 0 00-.009-.398zm18.702 3.13c0 3.527-3.094 5.027-6.373 5.027a6.714 6.714 0 01-6.59-3.651l3.991-2.258a2.505 2.505 0 002.582 1.81c1.1 0 1.656-.34 1.656-.959 0-1.685-7.533-.788-7.533-6.094 0-3.341 2.815-5.011 6-5.011a6.713 6.713 0 016.064 3.264l-3.991 2.1a2.257 2.257 0 00-2.057-1.346c-.8 0-1.284.309-1.284.851.002 1.766 7.535.606 7.535 6.267zm16.748-10.72v15.317h-4.64v-1.443a5.272 5.272 0 01-4.362 1.9c-3.094 0-5.739-2.211-5.739-6.341v-9.433h4.64v8.739a2.538 2.538 0 002.272 2.776 2.621 2.621 0 00.4.009c1.67 0 2.846-.99 2.846-3.094v-8.43zm26.162 5.91v9.405h-4.641v-9c0-1.546-.727-2.506-2.2-2.506s-2.4 1.068-2.4 2.877v8.631h-4.64v-9c0-1.546-.726-2.506-2.2-2.506s-2.4 1.068-2.4 2.877v8.631h-4.64v-15.32h4.64v1.41a4.733 4.733 0 014.128-1.825 4.532 4.532 0 014 2.015 5.043 5.043 0 014.439-2.011c3.625-.004 5.914 2.502 5.914 6.322zM20.727 6.549V0H0v45h20.727v-6.55a15.95 15.95 0 110-31.9zm0 .025v31.852a15.926 15.926 0 100-31.852zm175.702 4.114a3.4 3.4 0 11-3.4 3.4 3.4 3.4 0 013.4-3.4z"/></svg>